<?xml version="1.0" standalone="no"?>
<!DOCTYPE svg PUBLIC "-//W3C//DTD SVG 20010904//EN"
 "http://www.w3.org/TR/2001/REC-SVG-20010904/DTD/svg10.dtd">
<svg version="1.0" xmlns="http://www.w3.org/2000/svg"
 width="1680.000000pt" height="1680.000000pt" viewBox="0 0 1680.000000 1680.000000"
 preserveAspectRatio="xMidYMid meet">
<metadata>
Created by potrace 1.11, written by Peter Selinger 2001-2013
</metadata>
<g transform="translate(0.000000,1680.000000) scale(0.100000,-0.100000)"
fill="#000000" stroke="none">
<path d="M1199 12906 c-2 -2 -26 -7 -54 -10 -27 -4 -57 -9 -65 -11 -8 -2 -26
-6 -40 -9 -48 -9 -157 -44 -203 -64 -26 -12 -47 -18 -47 -14 0 4 -4 3 -8 -3
-4 -5 -41 -28 -82 -49 -41 -22 -109 -64 -150 -94 -75 -55 -280 -254 -280 -273
0 -5 -5 -15 -10 -22 -39 -46 -50 -61 -50 -68 0 -4 -6 -14 -13 -21 -14 -14 -89
-162 -89 -175 0 -4 -8 -24 -18 -43 -26 -50 -59 -177 -77 -295 -4 -27 -8 -1407
-8 -3065 l0 -3015 23 -100 c13 -55 24 -105 26 -112 1 -7 5 -16 9 -19 4 -4 7
-16 7 -26 0 -10 4 -26 9 -36 14 -25 38 -84 46 -109 3 -13 10 -23 15 -23 4 0
10 -10 14 -22 3 -13 26 -54 51 -92 25 -38 45 -72 45 -77 0 -4 3 -9 8 -11 4 -1
24 -24 45 -50 54 -67 103 -116 182 -182 94 -77 104 -86 110 -86 3 0 28 -15 57
-34 72 -45 225 -115 290 -132 10 -2 26 -6 35 -9 10 -3 61 -15 113 -26 92 -21
122 -22 955 -24 473 -1 862 -3 865 -4 3 0 6 -9 6 -18 1 -18 10 -88 18 -133 2
-14 7 -47 11 -75 4 -27 9 -53 12 -57 4 -8 7 -19 21 -78 9 -43 52 -114 90 -149
42 -39 97 -65 191 -92 62 -18 117 -19 1236 -16 l1170 2 78 38 c85 42 109 59
177 127 105 106 132 173 146 365 3 44 8 82 11 85 3 3 2141 5 4751 6 2611 1
4770 4 4797 8 114 15 191 34 298 73 103 37 270 124 313 164 11 10 24 19 28 19
15 0 215 192 246 236 150 213 206 327 258 529 l27 100 2 3035 c1 2062 -1 3053
-8 3090 -6 30 -11 63 -11 72 1 10 -3 20 -8 23 -5 3 -7 12 -4 19 3 8 0 17 -5
21 -6 3 -9 10 -6 15 11 19 -124 341 -155 370 -3 3 -28 37 -55 75 -65 93 -222
247 -315 312 -77 52 -250 148 -250 137 0 -3 -12 1 -27 10 -48 25 -131 50 -240
72 -13 2 -35 7 -50 11 -28 8 -14456 16 -14464 9z m14441 -292 c173 -33 334
-104 465 -204 57 -43 196 -194 236 -255 118 -181 167 -339 175 -563 2 -67 5
-126 5 -130 1 -4 1 -11 0 -17 -5 -27 -1 -267 4 -276 4 -5 2 -9 -3 -9 -8 0 -6
-82 2 -106 2 -6 0 -17 -4 -24 -5 -7 -4 -23 0 -36 5 -12 6 -24 3 -27 -7 -8 -5
-266 2 -278 4 -5 2 -9 -3 -9 -8 0 -6 -82 2 -106 2 -6 0 -17 -4 -24 -5 -7 -4
-23 0 -36 5 -12 6 -24 3 -27 -7 -8 -6 -185 2 -197 3 -6 3 -10 -2 -10 -8 0 -7
-125 2 -147 2 -7 1 -13 -3 -13 -8 0 -6 -124 2 -146 3 -8 2 -14 -2 -14 -7 0 -5
-126 3 -147 2 -7 1 -13 -3 -13 -8 0 -6 -124 2 -146 3 -8 2 -14 -2 -14 -7 0 -5
-126 3 -147 2 -7 1 -13 -3 -13 -8 0 -6 -124 2 -146 3 -8 2 -14 -2 -14 -7 0 -5
-126 3 -147 2 -7 1 -13 -3 -13 -6 0 -7 -67 -2 -95 2 -6 2 -14 1 -20 -5 -27 -1
-267 4 -276 4 -5 2 -9 -3 -9 -8 0 -6 -82 2 -106 2 -6 0 -17 -4 -24 -5 -7 -4
-23 0 -36 5 -12 6 -24 3 -27 -7 -8 -5 -266 2 -278 4 -5 2 -9 -3 -9 -8 0 -6
-82 2 -106 2 -6 0 -17 -4 -24 -5 -7 -4 -23 0 -36 5 -12 6 -24 3 -27 -7 -8 -5
-266 2 -278 4 -5 2 -9 -3 -9 -8 0 -6 -82 2 -106 2 -6 0 -17 -4 -24 -5 -7 -4
-23 0 -36 5 -12 6 -24 3 -27 -7 -8 -5 -266 2 -278 4 -5 2 -9 -3 -9 -8 0 -6
-82 2 -106 2 -6 0 -17 -4 -24 -5 -7 -4 -23 0 -36 5 -12 6 -24 3 -27 -7 -8 -5
-266 2 -278 4 -5 2 -9 -3 -9 -8 0 -6 -82 2 -106 2 -6 0 -17 -4 -24 -5 -7 -4
-23 0 -36 5 -12 6 -24 3 -27 -7 -8 -5 -266 2 -278 4 -5 2 -9 -3 -9 -8 0 -6
-82 2 -106 2 -6 0 -17 -4 -24 -5 -7 -4 -23 0 -36 5 -12 6 -24 3 -27 -7 -8 -5
-266 2 -278 4 -5 3 -9 -2 -9 -4 0 -8 -33 -7 -72 0 -63 -5 -106 -31 -228 -16
-75 -101 -270 -137 -315 -5 -5 -25 -32 -46 -60 -60 -82 -171 -185 -266 -247
-48 -32 -92 -55 -97 -52 -5 3 -9 1 -9 -4 0 -17 -188 -86 -270 -98 -19 -3 -48
-8 -65 -10 -35 -6 -9474 -12 -9492 -6 -27 9 19 89 79 137 51 41 108 89 233
198 170 149 425 422 425 456 0 6 4 11 9 11 5 0 13 9 16 20 3 11 12 26 18 33 7
6 30 39 52 72 22 33 42 62 45 65 3 3 32 41 65 85 61 82 65 87 131 166 22 25
55 65 74 89 19 24 93 111 163 194 149 175 141 165 238 276 125 143 133 152
162 184 16 17 47 53 70 80 23 27 54 60 68 75 14 14 61 66 105 115 43 49 90
102 104 116 14 15 54 60 90 100 36 39 76 84 90 99 37 41 172 189 199 220 13
14 49 53 80 86 31 34 83 92 116 129 33 38 71 81 85 95 64 66 99 117 95 141
-11 87 -99 174 -248 245 -216 104 -403 140 -626 121 -124 -10 -323 -74 -443
-142 -136 -77 -313 -223 -399 -331 -45 -56 -99 -133 -99 -142 0 -9 -200 -157
-468 -346 -62 -44 -123 -88 -134 -97 -12 -10 -25 -18 -30 -18 -19 0 -54 23
-86 57 l-33 35 3 94 c2 52 5 94 8 94 3 0 5 17 6 38 1 38 11 175 19 247 3 22 7
63 9 90 3 28 8 70 11 95 3 25 7 65 10 90 2 25 7 70 10 100 4 30 8 73 10 95 2
22 7 63 10 90 3 28 8 70 10 95 3 25 7 63 10 85 8 62 25 218 30 280 2 22 4 40
5 40 2 0 4 23 6 50 3 44 10 90 14 90 0 0 3 29 5 65 3 60 6 90 20 190 3 19 7
53 10 75 5 38 8 65 20 185 3 30 8 69 10 85 3 17 7 55 10 85 3 30 7 66 9 80 3
14 8 52 11 85 4 33 8 71 10 85 4 30 15 134 20 175 1 17 5 50 9 75 3 25 8 66
11 91 3 26 8 66 11 90 3 24 7 60 9 79 2 19 7 53 9 75 9 67 19 159 20 188 0 15
3 27 6 27 3 0 6 15 7 33 0 17 3 69 5 115 3 45 2 85 -1 87 -2 3 -6 18 -8 33 -5
51 -9 67 -33 135 -14 37 -28 67 -32 67 -5 0 -8 6 -8 13 0 22 -87 113 -142 149
-51 34 -122 65 -163 74 -110 23 -184 23 -293 0 -22 -5 -23 -3 -18 35 3 22 10
57 16 78 27 102 12 260 -35 358 -60 123 -168 207 -320 249 -76 21 -223 25
-285 9 -147 -39 -273 -166 -351 -355 -17 -41 -32 -79 -34 -85 -1 -5 -5 -17 -8
-25 -10 -24 -62 -186 -102 -315 -20 -66 -39 -127 -42 -135 -4 -8 -7 -17 -8
-20 -6 -22 -111 -348 -127 -394 -11 -32 -22 -66 -23 -75 -2 -9 -4 -17 -5 -18
-2 -2 -3 -6 -4 -10 -2 -8 -93 -293 -128 -398 -10 -33 -21 -67 -23 -75 -2 -8
-15 -47 -28 -87 -14 -39 -23 -74 -19 -77 3 -3 1 -6 -5 -6 -5 0 -10 -6 -10 -12
0 -10 -94 -313 -139 -448 -3 -8 -6 -17 -6 -20 -1 -3 -14 -43 -30 -90 -16 -47
-31 -92 -33 -100 -2 -8 -4 -15 -5 -15 -1 0 -3 -7 -5 -15 -2 -8 -10 -35 -18
-60 -8 -25 -38 -119 -67 -210 -28 -91 -54 -172 -57 -180 -4 -8 -7 -18 -8 -22
-2 -5 -4 -10 -5 -13 -4 -8 -7 -17 -15 -53 -11 -48 -20 -47 -38 6 -9 26 -30 85
-47 132 -17 47 -41 110 -52 140 -11 30 -24 64 -28 75 -4 11 -18 47 -30 80 -12
33 -26 69 -30 80 -5 11 -36 97 -70 190 -34 94 -64 177 -67 185 -4 8 -7 17 -7
20 -1 6 -24 65 -36 95 -5 11 -18 47 -30 80 -11 33 -23 67 -27 75 -3 8 -7 20
-9 25 -1 6 -8 24 -15 40 -7 17 -13 33 -14 38 -2 4 -4 9 -5 12 -1 3 -3 8 -5 13
-1 4 -4 14 -8 22 -22 59 -69 187 -71 195 -3 10 -9 26 -33 85 -8 19 -16 42 -18
50 -5 25 -49 138 -66 172 -5 10 -9 25 -9 33 0 8 -4 23 -9 33 -5 9 -19 44 -31
77 -12 33 -26 69 -30 80 -5 11 -27 72 -50 135 -121 336 -173 436 -283 544 -54
53 -138 103 -192 114 -33 7 -147 7 -185 0 -44 -9 -74 -16 -77 -18 -2 -2 -6 -3
-10 -5 -175 -48 -335 -210 -369 -370 -29 -136 -19 -275 26 -395 6 -14 12 -36
14 -50 3 -14 5 -26 7 -27 1 -2 3 -7 4 -13 1 -5 4 -12 5 -15 1 -3 3 -13 4 -22
1 -10 4 -23 8 -29 4 -6 9 -21 12 -35 10 -48 44 -167 50 -177 11 -19 -5 -42
-22 -34 -10 5 -28 7 -42 6 -57 -6 -107 -13 -135 -19 -16 -4 -36 -8 -42 -8 -7
0 -13 -4 -13 -8 0 -4 -12 -10 -26 -13 -41 -11 -136 -79 -174 -126 -45 -54 -90
-130 -90 -152 0 -10 -5 -18 -12 -18 -6 0 -9 -3 -6 -6 4 -3 2 -20 -3 -37 -30
-98 -20 -243 27 -417 8 -30 17 -64 19 -75 9 -48 17 -83 27 -120 10 -41 19 -78
23 -105 1 -8 5 -22 7 -30 3 -8 16 -60 28 -115 11 -55 23 -109 26 -120 3 -11 9
-42 14 -70 6 -27 14 -68 19 -90 20 -88 33 -152 37 -185 2 -19 7 -43 10 -52 7
-23 14 -58 19 -88 2 -14 5 -36 8 -50 3 -14 8 -38 10 -55 3 -16 8 -41 11 -55 4
-14 8 -38 10 -55 3 -27 6 -46 21 -135 2 -14 4 -25 6 -25 1 0 3 -13 4 -30 1
-16 5 -50 9 -75 17 -104 28 -182 40 -281 3 -26 8 -66 11 -90 3 -24 8 -69 10
-99 5 -65 13 -145 20 -215 3 -27 7 -81 10 -120 6 -73 12 -120 28 -220 4 -22
10 -60 13 -85 9 -69 21 -142 31 -185 2 -11 6 -36 9 -55 2 -19 7 -46 10 -60 5
-27 20 -106 29 -155 3 -16 8 -46 12 -65 4 -19 8 -42 9 -50 6 -37 15 -81 50
-240 3 -14 7 -41 10 -60 2 -19 8 -44 11 -55 4 -11 8 -24 9 -30 20 -100 36
-170 40 -176 2 -4 6 -20 8 -36 10 -72 72 -317 161 -638 48 -171 119 -366 174
-475 l38 -75 -786 1 c-432 1 -797 5 -811 8 -14 4 -39 9 -56 11 -64 9 -202 59
-284 102 -47 25 -87 49 -90 53 -3 4 -10 9 -16 11 -20 7 -75 53 -143 119 -198
193 -307 441 -317 720 -3 69 -7 131 -9 138 -2 6 -1 12 3 12 8 0 6 84 -3 108
-2 6 1 12 8 12 9 0 9 2 0 8 -7 4 -9 13 -4 20 4 8 5 31 1 53 -4 21 -5 39 -1 39
5 0 6 69 1 95 -2 6 -2 15 0 20 2 13 2 128 0 140 -1 6 -2 15 -1 20 5 26 1 186
-4 195 -3 6 -2 10 3 10 8 0 6 82 -3 108 -2 6 1 12 8 12 9 0 9 2 0 8 -7 4 -9
13 -4 20 4 8 5 31 1 53 -4 21 -4 39 -1 39 8 0 4 85 -4 108 -2 6 1 12 8 12 9 0
9 2 0 8 -7 4 -9 13 -4 20 4 8 5 31 1 53 -4 21 -5 39 -1 39 5 0 6 69 1 95 -2 6
-2 15 0 20 2 13 2 128 0 140 -1 6 -2 15 -1 20 5 26 1 186 -4 195 -3 6 -2 10 3
10 8 0 6 82 -3 108 -2 6 1 12 8 12 9 0 9 2 0 8 -7 4 -9 13 -4 20 4 8 5 31 1
53 -4 21 -4 39 -1 39 8 0 4 85 -4 108 -2 6 1 12 8 12 9 0 9 2 0 8 -7 4 -9 13
-4 20 4 8 5 31 1 53 -4 21 -5 39 -1 39 5 0 6 69 1 95 -2 6 -2 15 0 20 2 13 2
128 0 140 -1 6 -2 15 -1 20 5 26 1 186 -4 195 -3 6 -2 10 3 10 8 0 6 82 -3
108 -2 6 1 12 8 12 9 0 9 2 0 8 -7 4 -9 13 -4 20 4 8 5 31 1 53 -4 21 -4 39
-1 39 8 0 4 85 -4 108 -2 6 1 12 8 12 9 0 9 2 0 8 -7 4 -9 13 -4 20 4 8 5 31
1 53 -4 21 -5 39 -1 39 5 0 6 69 1 95 -2 6 -2 15 0 20 2 13 2 128 0 140 -1 6
-2 15 -1 20 5 26 1 186 -4 195 -3 6 -2 10 3 10 8 0 6 82 -3 108 -2 6 1 12 8
12 9 0 9 2 0 8 -7 4 -9 13 -4 20 4 8 5 31 1 53 -4 21 -4 39 -1 39 8 0 4 85 -4
108 -2 6 1 12 8 12 9 0 9 2 0 8 -7 4 -9 13 -4 20 4 8 5 31 1 53 -4 21 -5 39
-1 39 5 0 6 69 1 95 -2 6 -2 15 0 20 2 13 2 128 0 140 -1 6 -2 15 -1 20 5 26
1 186 -4 195 -3 6 -2 10 3 10 8 0 6 82 -3 108 -2 6 1 12 8 12 9 0 9 2 0 8 -7
4 -9 13 -4 20 4 8 5 31 1 53 -4 21 -4 39 -1 39 8 0 4 85 -4 108 -2 6 1 12 8
12 9 0 9 2 0 8 -7 4 -9 13 -4 20 4 8 5 31 1 53 -4 21 -5 39 -1 39 5 0 6 69 1
95 -2 6 -2 15 0 20 2 13 2 128 0 140 -1 6 -2 15 -1 20 5 26 1 186 -4 195 -3 6
-2 10 3 10 8 0 6 82 -3 108 -2 6 -1 12 3 12 4 0 7 19 6 43 0 45 28 194 45 240
6 15 9 27 6 27 -9 0 75 170 117 235 58 90 164 204 248 266 36 27 70 52 75 56
47 36 243 119 305 129 19 3 37 7 40 9 3 2 26 6 50 10 25 4 47 9 49 11 2 2
3231 4 7175 3 6236 0 7181 -2 7246 -15z m-9947 -678 c73 -37 91 -65 94 -151 1
-38 -5 -94 -12 -123 -8 -30 -17 -72 -20 -95 -4 -23 -11 -60 -16 -82 -5 -22
-11 -47 -13 -55 -2 -8 -7 -35 -12 -60 -9 -51 -11 -59 -14 -62 -1 -2 -3 -12 -5
-23 -1 -11 -6 -36 -10 -55 -4 -19 -9 -44 -11 -55 -2 -11 -10 -50 -18 -86 -8
-36 -17 -77 -20 -90 -3 -13 -7 -35 -10 -49 -3 -14 -9 -41 -13 -60 -4 -19 -8
-37 -8 -40 -1 -3 -4 -18 -8 -35 -4 -16 -9 -42 -12 -57 -12 -64 -16 -84 -21
-100 -3 -10 -8 -30 -10 -45 -3 -16 -23 -111 -44 -213 -21 -102 -41 -196 -44
-210 -3 -14 -7 -36 -11 -50 -11 -50 -15 -70 -20 -97 -3 -16 -12 -59 -21 -98
-9 -38 -18 -81 -20 -95 -3 -14 -19 -88 -35 -165 -17 -77 -32 -150 -35 -161
-12 -60 -46 -222 -50 -239 -3 -11 -7 -31 -10 -45 -2 -14 -7 -36 -10 -50 -3
-14 -8 -34 -10 -45 -2 -11 -20 -94 -40 -185 -19 -91 -37 -178 -40 -195 -3 -16
-10 -48 -15 -70 -5 -22 -12 -51 -15 -66 -2 -14 -10 -47 -17 -75 l-12 -49 -55
-1 c-220 -5 -301 -47 -302 -159 -2 -91 69 -149 170 -139 140 15 323 6 440 -21
12 -3 30 -7 40 -9 10 -2 41 -11 68 -19 60 -18 107 -13 145 14 75 53 80 159 12
221 -18 17 -84 44 -128 54 -11 2 -36 8 -55 12 -36 8 -45 28 -29 62 4 8 10 33
13 55 4 22 11 56 16 75 5 19 11 49 13 65 3 17 13 64 22 105 9 41 18 86 21 100
2 14 7 36 10 50 15 63 19 84 28 133 2 12 16 75 30 139 14 64 28 127 30 140 3
13 7 34 11 48 8 39 15 72 21 110 3 19 8 38 10 41 2 3 6 21 9 40 3 19 12 62 20
97 8 34 17 77 20 95 3 17 8 39 10 47 2 8 6 26 9 40 2 14 16 81 31 150 14 69
29 136 31 150 3 14 11 53 19 88 8 34 17 74 20 90 3 15 7 36 9 47 24 108 88
416 92 435 2 14 7 36 10 50 3 14 8 34 10 45 20 105 29 128 60 169 54 70 169
127 244 119 86 -10 105 -14 108 -23 2 -5 9 -10 16 -10 18 0 61 -49 80 -91 18
-38 34 -124 30 -155 -2 -11 -6 -48 -10 -84 -7 -71 -12 -105 -14 -105 -1 0 -3
-22 -4 -50 -2 -27 -5 -50 -6 -50 -1 0 -3 -16 -4 -35 -2 -37 -15 -147 -22 -191
-2 -15 -6 -47 -9 -70 -3 -24 -8 -66 -11 -94 -9 -70 -12 -93 -18 -150 -3 -27
-8 -66 -11 -85 -2 -19 -7 -60 -10 -90 -3 -30 -7 -66 -10 -80 -2 -14 -7 -50
-10 -80 -3 -30 -7 -66 -9 -80 -3 -14 -7 -54 -10 -90 -4 -36 -9 -78 -12 -95 -3
-16 -7 -54 -9 -85 -2 -30 -5 -55 -6 -55 0 0 -2 -16 -4 -35 -2 -19 -4 -35 -5
-35 0 0 -3 -18 -4 -40 -5 -54 -17 -166 -22 -190 -2 -10 -6 -49 -10 -85 -3 -36
-8 -73 -10 -83 -1 -10 -6 -53 -10 -95 -3 -42 -8 -86 -10 -97 -2 -10 -6 -49
-10 -85 -3 -36 -7 -76 -9 -90 -2 -14 -7 -56 -11 -95 -3 -38 -8 -77 -9 -85 -2
-8 -6 -46 -10 -85 -4 -38 -8 -85 -10 -103 -10 -82 -18 -179 -18 -204 -1 -16
-3 -28 -6 -28 -3 0 -6 -19 -6 -43 -1 -23 -4 -76 -8 -117 -15 -147 -21 -247
-21 -360 -1 -135 14 -176 96 -265 l49 -54 -35 3 c-20 1 -36 0 -36 -3 0 -3 -21
-6 -47 -5 -168 3 -512 -91 -698 -192 -73 -39 -140 -78 -145 -84 -3 -3 -27 -22
-55 -41 -79 -56 -141 -114 -242 -227 -58 -65 -167 -236 -188 -297 -15 -41 -10
-80 16 -118 32 -48 72 -69 124 -66 56 4 99 39 147 123 73 126 179 250 278 326
17 14 38 31 45 38 8 6 18 12 22 12 5 0 19 9 30 20 24 22 231 123 283 138 19 6
69 20 110 32 41 12 89 24 105 26 17 3 41 7 55 9 34 5 146 16 217 20 32 2 65 5
73 7 25 6 120 57 183 99 32 22 61 39 63 39 3 0 10 5 17 10 7 6 71 52 142 102
72 51 132 95 133 100 2 4 10 8 17 8 7 0 15 4 17 8 2 4 44 37 93 72 50 35 92
67 95 70 3 3 48 37 100 75 52 38 100 74 106 80 7 5 24 19 39 30 15 10 35 35
46 55 22 41 42 73 49 80 3 3 23 27 45 55 22 27 60 69 85 94 48 47 182 151 194
151 4 0 19 9 33 20 14 11 34 20 43 20 10 0 23 7 30 15 7 9 15 13 18 11 2 -3
17 1 32 9 97 50 295 68 450 41 74 -13 273 -92 268 -107 -3 -7 -101 -112 -308
-329 -25 -26 -101 -107 -170 -180 -69 -74 -141 -150 -160 -171 -19 -20 -72
-76 -116 -125 -45 -49 -99 -108 -120 -131 -50 -53 -179 -194 -202 -220 -9 -11
-37 -43 -62 -70 -25 -28 -70 -78 -100 -113 -30 -34 -59 -68 -65 -74 -5 -6 -39
-45 -75 -86 -35 -41 -71 -82 -80 -91 -8 -9 -24 -27 -34 -40 -11 -13 -31 -38
-45 -55 -14 -17 -44 -52 -66 -79 -22 -27 -45 -53 -50 -59 -29 -29 -211 -274
-278 -374 -42 -62 -91 -129 -109 -149 -74 -82 -198 -199 -292 -278 -27 -22
-58 -48 -70 -59 -11 -10 -48 -39 -81 -64 -60 -45 -155 -139 -155 -152 0 -4 -9
-28 -20 -54 -12 -25 -21 -49 -21 -53 -1 -5 -7 -24 -15 -43 -7 -19 -23 -73 -34
-120 -28 -113 -29 -118 -35 -165 -3 -22 -9 -49 -12 -60 -6 -21 -8 -32 -17
-130 -13 -139 -34 -174 -149 -253 l-47 -33 -1117 1 c-615 0 -1127 2 -1138 4
-11 3 -27 5 -36 5 -40 2 -52 25 -55 107 -3 90 -12 195 -18 215 -51 157 -166
436 -214 518 -40 68 -83 166 -126 287 -24 69 -104 328 -111 361 -2 10 -22 90
-44 178 -23 88 -43 169 -45 180 -2 11 -9 38 -14 60 -6 22 -13 51 -16 65 -3 14
-10 43 -15 65 -7 33 -35 161 -46 215 -10 44 -35 168 -39 190 -7 40 -38 194
-40 205 -8 32 -18 84 -21 110 -2 17 -4 30 -5 30 -2 0 -8 41 -11 83 -2 17 -6
32 -9 32 -3 0 -6 8 -6 18 -1 17 -11 92 -19 142 -6 32 -14 108 -20 185 -3 33
-8 87 -11 120 -3 33 -7 87 -9 120 -4 67 -19 211 -30 290 -2 17 -7 57 -10 90
-3 33 -8 71 -10 85 -6 33 -12 74 -20 130 -3 25 -10 70 -15 100 -5 30 -12 71
-15 90 -9 54 -24 142 -30 175 -3 17 -8 41 -10 55 -7 47 -16 95 -31 170 -9 41
-17 84 -19 95 -1 11 -5 27 -8 35 -2 8 -12 53 -21 100 -23 117 -25 131 -32 160
-10 44 -15 64 -19 90 -2 14 -11 50 -18 80 -15 57 -56 232 -62 266 -2 10 -4 21
-5 24 -1 3 -3 10 -5 15 -1 6 -3 12 -4 15 -2 3 -4 14 -6 25 -2 11 -9 40 -15 65
-5 25 -13 56 -15 70 -3 14 -10 39 -15 55 -6 17 -11 60 -11 97 -2 99 28 156
117 227 6 5 39 13 73 18 71 11 116 -4 169 -55 26 -26 71 -105 78 -137 2 -9 52
-186 99 -350 12 -42 30 -108 41 -150 1 -5 10 -35 18 -65 9 -30 18 -62 20 -71
9 -36 29 -105 34 -119 3 -8 6 -19 7 -25 2 -5 8 -30 15 -55 7 -25 13 -49 15
-55 1 -5 5 -17 8 -25 3 -8 20 -69 38 -135 17 -66 40 -147 49 -180 10 -33 35
-121 55 -195 21 -74 48 -171 61 -215 13 -44 28 -101 33 -126 6 -25 13 -53 17
-62 4 -11 1 -17 -7 -17 -16 0 -155 -86 -193 -120 -49 -44 -70 -106 -57 -172 4
-22 66 -78 94 -84 55 -13 117 2 147 36 22 26 172 110 195 110 8 0 15 4 15 10
0 5 3 9 8 8 4 -1 27 7 52 18 25 10 48 18 53 16 4 -1 7 3 7 10 0 6 3 9 6 6 3
-3 29 2 57 12 29 10 71 21 95 24 70 9 113 44 130 106 17 65 -12 132 -73 166
-24 13 -133 16 -141 3 -3 -5 -9 -7 -14 -4 -4 2 -29 -2 -54 -9 -42 -13 -47 -12
-55 2 -7 15 -37 117 -46 160 -2 9 -29 105 -60 212 -30 107 -58 206 -61 220 -2
14 -9 40 -15 58 -6 18 -12 41 -14 50 -2 9 -4 17 -5 17 -1 0 -3 7 -5 15 -2 8
-13 49 -25 90 -12 41 -24 82 -26 90 -2 8 -8 33 -14 55 -6 22 -15 54 -19 71 -5
18 -11 36 -14 41 -3 5 -8 20 -11 34 -3 13 -10 42 -16 64 -6 22 -12 47 -14 56
-3 9 -14 49 -26 89 -12 40 -23 80 -25 89 -3 9 -12 43 -21 76 -9 33 -17 65 -18
72 -1 7 -5 16 -9 19 -4 4 -7 15 -7 24 0 9 -8 43 -19 76 -17 54 -101 355 -105
379 -1 6 -10 35 -19 65 -9 30 -23 82 -32 115 -9 33 -25 90 -36 128 -42 149
-57 207 -52 207 3 0 0 6 -6 14 -7 8 -14 25 -17 38 -2 12 -13 55 -23 93 -22 82
-21 173 3 228 20 46 79 103 123 119 18 7 33 15 33 18 0 4 6 7 13 8 6 0 30 3
52 5 58 7 112 -22 159 -86 41 -55 92 -158 121 -242 9 -27 23 -63 30 -80 8 -16
20 -50 28 -75 20 -59 66 -181 78 -202 5 -10 9 -25 9 -33 0 -8 4 -23 9 -33 19
-37 41 -93 41 -103 0 -6 6 -25 14 -42 7 -18 24 -59 36 -92 12 -33 26 -69 30
-80 5 -11 43 -114 86 -230 42 -115 103 -282 136 -370 33 -88 61 -164 62 -170
2 -5 9 -26 18 -45 8 -19 32 -85 53 -145 22 -61 44 -113 49 -117 6 -4 8 -8 3
-8 -4 0 0 -17 9 -37 9 -21 17 -42 18 -48 2 -5 6 -17 9 -25 3 -8 22 -60 42
-115 20 -55 39 -107 42 -115 4 -8 7 -17 8 -20 4 -13 18 -47 25 -65 13 -31 127
-347 135 -372 5 -19 2 -23 -14 -23 -11 0 -30 -4 -43 -9 -13 -5 -48 -16 -78
-26 -56 -18 -119 -72 -121 -104 -5 -60 -3 -78 13 -110 36 -74 110 -92 216 -55
38 13 84 26 103 28 18 3 45 7 59 10 65 14 263 21 365 12 141 -12 217 140 119
238 -39 39 -86 53 -176 52 -32 -1 -58 2 -58 6 0 9 64 212 87 276 8 23 16 48
17 55 2 6 6 19 9 27 3 8 24 76 47 150 23 74 57 180 75 235 29 87 95 296 101
318 1 4 2 8 4 10 1 1 3 9 5 17 1 8 12 42 23 75 21 63 74 226 162 505 29 91 67
210 85 265 18 55 52 161 75 235 23 74 51 161 62 194 11 32 21 63 22 70 1 6 4
16 8 21 3 6 9 26 13 45 4 19 10 40 14 45 3 6 6 12 6 15 1 7 25 81 32 100 8 18
7 17 17 60 5 19 12 41 16 50 5 8 20 56 35 105 15 50 33 104 39 120 6 17 11 33
12 38 1 4 2 9 3 12 0 3 1 6 1 8 -2 8 57 154 86 215 34 69 84 128 122 144 37
16 161 1 215 -26z"/>
<path d="M10183 11418 c-5 -7 -35 -85 -67 -173 -31 -88 -61 -168 -66 -177 -6
-10 -10 -22 -10 -27 0 -5 -8 -26 -17 -47 -9 -22 -18 -44 -19 -51 -1 -7 -21
-63 -45 -125 -23 -62 -42 -118 -42 -125 0 -7 -4 -13 -9 -13 -4 0 -8 -6 -8 -12
0 -12 -18 -62 -115 -323 -19 -49 -52 -140 -74 -200 -21 -61 -44 -122 -50 -135
-5 -14 -31 -83 -57 -155 -26 -71 -51 -141 -56 -155 -5 -14 -10 -27 -10 -30 0
-5 -25 -70 -43 -115 -4 -11 -9 -24 -11 -30 -1 -5 -6 -21 -12 -35 -5 -14 -10
-28 -11 -33 0 -4 -8 -21 -16 -37 -9 -17 -14 -31 -13 -31 2 -1 72 -2 156 -3
l152 -2 16 46 c9 25 19 52 22 60 3 8 6 17 7 20 1 3 7 25 15 50 7 25 17 50 21
55 4 6 10 22 12 35 3 14 11 39 18 55 7 17 13 32 13 35 1 3 7 24 15 48 14 42
14 42 65 42 28 1 214 2 414 3 l363 2 10 -40 c6 -22 14 -44 17 -50 4 -5 7 -12
7 -15 1 -8 56 -174 65 -195 4 -11 18 -50 30 -86 l22 -65 152 0 c128 1 151 3
148 16 -3 15 -57 164 -110 305 -14 39 -27 72 -27 75 -1 6 -53 146 -68 180 -6
14 -11 30 -13 35 -2 11 -141 391 -151 415 -3 8 -7 20 -9 25 -3 13 -52 145 -61
165 -3 8 -7 20 -9 25 -7 24 -35 102 -44 120 -4 11 -27 72 -50 135 -23 63 -51
139 -62 169 -12 29 -21 60 -21 67 0 8 -4 14 -9 14 -4 0 -8 5 -8 12 0 10 -44
137 -70 203 -4 11 -13 35 -20 53 l-12 32 -118 0 c-82 0 -120 -4 -127 -12z
m176 -533 c22 -66 66 -192 96 -280 31 -88 58 -164 59 -170 2 -5 6 -17 9 -25
10 -25 98 -284 100 -294 2 -10 -622 -16 -628 -6 -5 9 49 164 60 172 6 4 7 8 3
8 -4 0 1 21 11 48 10 26 19 50 20 54 1 4 4 13 6 20 9 24 176 512 192 561 9 26
20 44 24 40 5 -5 26 -62 48 -128z"/>
<path d="M11628 11412 c-16 -9 -28 -20 -28 -24 0 -5 -4 -8 -10 -8 -11 0 -103
-62 -108 -72 -2 -5 -8 -8 -13 -8 -5 0 -31 -15 -57 -34 l-47 -35 -1 -145 -1
-146 59 33 c32 17 58 35 58 39 0 5 4 8 9 8 5 0 42 20 82 45 40 25 76 45 79 45
3 0 5 -388 5 -862 l0 -863 143 0 c91 -1 142 3 143 10 3 31 4 2012 1 2023 -3 9
-41 12 -146 12 -115 0 -146 -4 -168 -18z"/>
<path d="M12588 11412 c-16 -9 -28 -20 -28 -24 0 -5 -4 -8 -9 -8 -5 0 -58 -33
-118 -73 l-108 -73 -1 -142 c-1 -120 2 -142 14 -142 9 0 23 6 31 13 20 17 211
134 231 142 14 5 15 -91 15 -857 l0 -863 143 -1 143 -1 -1 91 c-1 50 -1 96 0
101 0 6 0 62 0 125 -1 63 -1 122 -1 130 1 35 0 202 0 208 -1 4 -1 12 0 17 1 6
1 62 1 125 -1 63 -1 122 -1 130 1 35 0 202 0 208 -1 4 -1 12 0 17 1 6 1 62 1
125 -1 63 -1 122 -1 130 1 35 0 202 0 208 -1 4 -1 12 0 17 1 6 1 62 1 125 -2
119 -1 154 1 167 1 4 1 34 0 66 l-1 57 -142 0 c-117 0 -148 -4 -170 -18z"/>
<path d="M13230 10834 c0 -10 21 -67 50 -139 5 -11 14 -37 20 -58 7 -22 18
-51 26 -65 8 -15 14 -32 14 -37 0 -6 14 -46 31 -90 17 -44 32 -84 33 -90 2 -5
6 -17 9 -25 3 -8 29 -78 58 -155 28 -77 76 -207 106 -290 30 -82 73 -199 94
-260 22 -60 43 -119 48 -130 29 -65 33 -85 23 -115 -6 -16 -8 -30 -5 -30 3 0
1 -6 -5 -12 -5 -7 -20 -46 -32 -86 -40 -135 -98 -190 -208 -198 -36 -3 -69 -9
-72 -14 -3 -5 -6 -67 -5 -137 l1 -128 54 0 c75 -1 188 19 242 43 55 24 116 84
146 144 19 39 102 272 203 573 17 50 33 97 36 105 3 8 7 20 9 25 1 6 43 127
92 270 50 143 125 361 167 485 43 124 82 236 87 250 5 14 9 26 9 27 0 2 8 27
18 55 38 104 50 94 -109 93 -78 0 -143 -5 -148 -10 -8 -8 -69 -186 -76 -220
-4 -17 -136 -425 -171 -527 -19 -53 -31 -99 -28 -102 4 -3 1 -6 -5 -6 -7 0
-11 -3 -10 -7 5 -17 -46 -163 -53 -151 -3 7 -16 42 -28 78 -12 36 -26 74 -31
85 -11 26 -24 70 -20 70 2 0 -3 11 -10 25 -8 14 -15 30 -16 35 -3 11 -41 121
-51 145 -3 8 -7 20 -9 25 -8 31 -85 243 -94 257 -5 10 -10 24 -10 32 0 8 -9
36 -20 62 -11 26 -22 54 -24 63 -3 17 -7 29 -35 101 l-17 45 -142 0 c-101 1
-142 -3 -142 -11z"/>
<path d="M10082 7965 c-8 -12 -10 -2034 -2 -2036 32 -7 281 -2 283 6 2 6 3
200 2 433 l0 422 215 -2 214 -3 217 -429 217 -430 166 0 c91 -1 166 3 166 8 0
5 -25 57 -57 115 -31 58 -81 153 -111 211 -30 58 -71 137 -92 175 -20 39 -68
129 -105 200 -37 72 -71 135 -75 140 -24 35 -18 43 58 80 83 41 188 136 213
194 8 17 17 31 21 31 5 0 8 9 8 19 0 11 4 22 9 25 4 3 12 20 16 38 4 18 9 38
11 43 11 32 22 104 19 132 -2 18 0 31 4 29 4 -3 6 8 5 22 -1 15 -3 27 -4 27
-1 0 -3 18 -5 40 -8 112 -46 217 -110 304 -81 110 -195 177 -355 207 -60 11
-921 11 -928 -1z m940 -297 c101 -60 148 -159 145 -307 -2 -77 -6 -95 -35
-152 -36 -70 -92 -120 -152 -136 -19 -5 -165 -9 -325 -9 l-290 1 -1 28 c-1 15
-4 30 -7 33 -3 3 -2 16 2 28 5 11 5 30 1 41 -4 11 -4 34 1 52 4 18 3 35 -2 38
-4 3 -5 16 -1 28 7 23 7 87 -1 122 -2 11 -1 29 3 40 4 11 4 29 0 40 -4 11 -4
34 1 52 4 18 3 35 -2 38 -4 3 -5 16 -1 28 5 12 7 32 6 45 l-1 23 306 -3 306
-3 47 -27z"/>
<path d="M13665 7952 c-22 -9 -42 -20 -43 -24 -2 -5 -7 -6 -12 -3 -8 5 -110
-93 -108 -104 1 -3 -3 -15 -9 -26 -23 -44 -36 -135 -37 -269 l-2 -141 -64 -2
c-36 -1 -71 -2 -78 -2 -9 -1 -12 -30 -11 -121 1 -104 3 -120 17 -121 10 -1 44
-2 77 -3 l60 -1 1 -600 c1 -330 2 -603 3 -606 1 -3 18 -5 39 -4 20 0 43 -3 50
-8 7 -6 12 -6 12 0 0 10 60 10 78 -1 7 -4 12 -3 12 1 0 12 74 10 82 -2 11 -14
10 -41 12 620 l1 600 125 2 c69 1 134 2 145 2 19 1 20 7 18 93 -1 51 -2 107
-2 124 l-1 32 -122 0 c-68 0 -132 0 -144 1 -20 1 -21 6 -19 125 1 98 5 130 18
150 10 14 22 27 27 27 6 1 15 3 20 4 6 1 57 3 114 4 l104 1 1 135 0 136 -147
-2 c-81 0 -155 -6 -166 -11 -13 -7 -16 -7 -12 1 4 6 6 11 4 10 -2 -1 -21 -8
-43 -17z"/>
<path d="M12358 7404 c-2 -1 -23 -5 -48 -9 -61 -9 -181 -51 -191 -67 -5 -7 -9
-9 -9 -4 0 10 -62 -36 -106 -79 -71 -69 -144 -205 -158 -295 -3 -19 -9 -55
-14 -80 -20 -111 -4 -481 26 -560 3 -8 6 -17 6 -20 11 -55 85 -170 147 -229
44 -42 171 -119 188 -114 4 0 13 -3 22 -8 9 -5 36 -11 59 -14 23 -3 46 -8 51
-11 13 -8 218 -7 249 1 14 4 34 8 45 10 39 7 139 46 184 72 77 44 160 107 161
122 0 7 -40 53 -88 101 l-88 88 -39 -30 c-145 -108 -318 -132 -476 -66 -50 22
-113 87 -139 143 -21 46 -45 159 -36 173 2 4 209 7 460 7 l457 0 -2 112 c-2
184 -41 360 -103 475 -48 87 -65 108 -146 178 -42 37 -136 79 -211 96 -26 6
-197 13 -201 8z m207 -283 c68 -38 111 -93 144 -183 22 -59 42 -157 32 -159
-3 -1 -148 -2 -322 -3 l-317 -2 3 41 c11 157 91 273 218 316 73 25 188 20 242
-10z"/>
</g>
</svg>
